<?xml version="1.0" encoding="iso-8859-1"?>
<!-- Generator: Adobe Illustrator 19.0.0, SVG Export Plug-In . SVG Version: 6.00 Build 0)  -->
<svg xmlns="http://www.w3.org/2000/svg" xmlns:xlink="http://www.w3.org/1999/xlink" version="1.1" id="Layer_1" x="0px" y="0px" viewBox="0 0 512 512" style="enable-background:new 0 0 512 512;" xml:space="preserve" width="512" height="512">
<g>
	<g>
		<path style="fill:#AD4F3D;" d="M85.868,446.906v43.648c0,7.702,6.244,13.946,13.946,13.946h44.924    c7.702,0,13.946-6.244,13.946-13.946v-43.648H85.868z"/>
		<path style="fill:#AD4F3D;" d="M426.131,446.906v43.648c0,7.702-6.244,13.946-13.946,13.946h-44.924    c-7.702,0-13.946-6.244-13.946-13.946v-43.648H426.131z"/>
		<path style="fill:#C86D5C;" d="M426.131,7.5H85.868c-13.424,0-24.307,10.883-24.307,24.307v411.236    c0,13.424,10.883,24.307,24.307,24.307h340.263c13.424,0,24.307-10.883,24.307-24.307V31.807    C450.438,18.383,439.556,7.5,426.131,7.5z"/>
		<polygon style="fill:#7CB777;" points="226.152,89.497 166.445,89.497 136.592,163.463 166.445,237.43 226.152,237.43     256,163.463   "/>
		<polygon style="fill:#34925D;" points="238.58,120.296 226.152,89.497 166.445,89.497 154.014,120.296   "/>
		<path style="fill:#85E7FF;" d="M166.445,89.497V237.43h-43.679c-8.852,0-16.028-7.176-16.028-16.028V105.525    c0-8.852,7.176-16.028,16.028-16.028H166.445z"/>
		<polygon style="fill:#FD6F71;" points="375.408,163.463 345.555,89.497 345.555,89.497 345.555,89.497 285.848,89.497     285.848,89.497 256,163.463 285.848,237.43 285.848,237.43 345.555,237.43 345.555,237.43 345.555,237.429   "/>
		<polygon style="fill:#EFEDEE;" points="226.152,276.9 166.445,276.9 136.592,350.867 166.445,424.833 226.152,424.833     256,350.867   "/>
		<path style="fill:#7CB777;" d="M166.445,276.9v147.933h-43.679c-8.852,0-16.028-7.176-16.028-16.028V292.928    c0-8.852,7.176-16.028,16.028-16.028H166.445z"/>
		<polygon style="fill:#85E7FF;" points="375.408,350.867 345.555,276.901 345.555,276.9 345.555,276.9 285.848,276.9     285.848,276.9 256,350.867 285.848,424.833 285.848,424.833 345.555,424.833 345.555,424.833 345.555,424.833   "/>
		<rect x="226.152" y="276.9" style="fill:#FADC60;" width="59.697" height="147.933"/>
		<polygon style="fill:#E34B4C;" points="357.985,120.296 345.555,89.497 345.555,89.497 345.555,89.497 285.848,89.497     285.848,89.497 273.419,120.296   "/>
		<rect x="226.152" y="89.497" style="fill:#EFEDEE;" width="59.697" height="147.933"/>
		<path style="fill:#FADC60;" d="M405.262,105.525v115.877c0,8.852-7.176,16.028-16.028,16.028h-43.679V89.497h43.679    C398.086,89.497,405.262,96.673,405.262,105.525z"/>
		<path style="fill:#FD6F71;" d="M405.262,292.928v115.877c0,8.852-7.176,16.028-16.028,16.028h-43.679V276.9h43.679    C398.086,276.9,405.262,284.076,405.262,292.928z"/>
		<path style="fill:#4DB8CC;" d="M106.738,105.525v14.771h59.707V89.497h-43.679C113.914,89.497,106.738,96.673,106.738,105.525z"/>
		<rect x="226.152" y="89.497" style="fill:#D2D2D2;" width="59.697" height="30.799"/>
		<path style="fill:#E0B629;" d="M405.262,120.296v-14.771c0-8.852-7.176-16.028-16.028-16.028h-43.679v30.799H405.262z"/>
		<polygon style="fill:#D2D2D2;" points="238.58,307.699 226.152,276.9 166.445,276.9 154.014,307.699   "/>
		<polygon style="fill:#4DB8CC;" points="357.985,307.699 345.555,276.9 345.555,276.9 345.555,276.9 285.848,276.9 285.848,276.9     273.419,307.699   "/>
		<path style="fill:#34925D;" d="M106.738,292.928v14.771h59.707V276.9h-43.679C113.914,276.9,106.738,284.076,106.738,292.928z"/>
		<rect x="226.152" y="276.9" style="fill:#E0B629;" width="59.697" height="30.799"/>
		<path style="fill:#E34B4C;" d="M405.262,307.699v-14.771c0-8.852-7.176-16.028-16.028-16.028h-43.679v30.799H405.262z"/>
	</g>
	<g>
		<path d="M177.437,57.507c4.142,0,7.5-3.358,7.5-7.5V35.788c0-4.142-3.358-7.5-7.5-7.5s-7.5,3.358-7.5,7.5v14.219    C169.937,54.149,173.295,57.507,177.437,57.507z"/>
		<path d="M334.563,57.507c4.142,0,7.5-3.358,7.5-7.5V35.788c0-4.142-3.358-7.5-7.5-7.5s-7.5,3.358-7.5,7.5v14.219    C327.063,54.149,330.42,57.507,334.563,57.507z"/>
		<path d="M256,65.096c9.721,0,18.847-4.062,25.037-11.143c2.726-3.119,2.408-7.856-0.71-10.583    c-3.119-2.726-7.857-2.408-10.583,0.711c-3.342,3.822-8.351,6.015-13.744,6.015c-5.393,0-10.402-2.192-13.744-6.015    c-2.726-3.119-7.465-3.437-10.583-0.711c-3.119,2.726-3.438,7.464-0.711,10.583C237.152,61.035,246.278,65.096,256,65.096z"/>
		<path d="M367.261,512h44.924c11.826,0,21.446-9.621,21.446-21.446v-16.605c13.93-3.381,24.307-15.951,24.307-30.906V31.807    C457.938,14.269,443.67,0,426.131,0H85.869C68.33,0,54.062,14.269,54.062,31.807v411.236c0,14.955,10.377,27.525,24.307,30.906    v16.605c0,11.826,9.621,21.446,21.446,21.446h44.924c11.826,0,21.446-9.621,21.446-21.446V474.85h179.63v15.704    C345.815,502.379,355.436,512,367.261,512z M418.631,490.554c0,3.555-2.892,6.446-6.446,6.446h-44.924    c-3.555,0-6.446-2.892-6.446-6.446V474.85h57.816V490.554z M69.062,443.043V31.807C69.062,22.54,76.601,15,85.869,15h340.263    c9.268,0,16.807,7.54,16.807,16.807v411.236c0,9.268-7.54,16.807-16.807,16.807H85.869    C76.601,459.85,69.062,452.311,69.062,443.043z M151.185,490.554c0,3.555-2.892,6.446-6.446,6.446H99.815    c-3.555,0-6.446-2.892-6.446-6.446V474.85h57.816V490.554z"/>
		<path d="M389.233,244.93c12.974,0,23.528-10.555,23.528-23.528V105.525c0-12.974-10.555-23.528-23.528-23.528H122.767    c-12.974,0-23.528,10.555-23.528,23.528v115.877c0,12.973,10.555,23.528,23.528,23.528H389.233z M293.348,96.997h44.707V229.93    h-44.707V96.997z M397.762,105.525v115.877c0,4.702-3.826,8.528-8.528,8.528h-36.178V96.997h36.178    C393.936,96.997,397.762,100.823,397.762,105.525z M278.348,229.93h-44.696V96.997h44.696V229.93z M114.238,105.525    c0-4.703,3.826-8.528,8.528-8.528h36.178v31.747c0,4.142,3.358,7.5,7.5,7.5s7.5-3.358,7.5-7.5V96.997h44.707V229.93h-44.707    v-71.186c0-4.142-3.358-7.5-7.5-7.5s-7.5,3.358-7.5,7.5v71.186h-36.178c-4.703,0-8.528-3.826-8.528-8.528V105.525z"/>
		<path d="M389.234,432.333c12.973,0,23.528-10.555,23.528-23.528V292.929c0-12.974-10.555-23.528-23.528-23.528H122.766    c-12.973,0-23.528,10.555-23.528,23.528v115.876c0,12.974,10.555,23.528,23.528,23.528H389.234z M173.945,284.4h44.707v132.933    h-44.707V284.4z M345.555,328.91c4.142,0,7.5-3.358,7.5-7.5V284.4h36.179c4.702,0,8.528,3.826,8.528,8.528v115.876    c0,4.703-3.826,8.528-8.528,8.528h-36.179V351.41c0-4.142-3.358-7.5-7.5-7.5s-7.5,3.358-7.5,7.5v65.923h-44.707V284.4h44.707    v37.01C338.055,325.552,341.413,328.91,345.555,328.91z M278.348,417.333h-44.696V284.4h44.696V417.333z M114.238,292.929    c0-4.703,3.826-8.528,8.528-8.528h36.179v132.933h-36.179c-4.702,0-8.528-3.826-8.528-8.528V292.929z"/>
	</g>
</g>















</svg>
